<svg width="32" height="29" viewBox="0 0 32 29" fill="none" xmlns="http://www.w3.org/2000/svg">
<path d="M1.5 8.42017C1.5 7.3156 2.39543 6.42017 3.5 6.42017H5.5C6.60457 6.42017 7.5 7.3156 7.5 8.42017V18.4202C7.5 19.5247 8.39543 20.4202 9.5 20.4202H23.5C24.6046 20.4202 25.5 19.5247 25.5 18.4202V8.42017C25.5 7.3156 26.3954 6.42017 27.5 6.42017H29.5C30.6046 6.42017 31.5 7.3156 31.5 8.42017V21.4202C31.5 24.1816 29.2614 26.4202 26.5 26.4202H6.5C3.73858 26.4202 1.5 24.1816 1.5 21.4202V8.42017Z" fill="#84CC16"/>
<path d="M9.5 7.92017C9.5 6.47042 10.6753 5.29517 12.125 5.29517H20.875C22.3247 5.29517 23.5 6.47042 23.5 7.92017V17.5452C23.5 18.0284 23.1082 18.4202 22.625 18.4202H10.375C9.89175 18.4202 9.5 18.0284 9.5 17.5452V7.92017Z" fill="#84CC16"/>
</svg>
