<svg width="32" height="29" viewBox="0 0 32 29" fill="none" xmlns="http://www.w3.org/2000/svg">
<path d="M3.5 6.67017H5.5C6.4665 6.67017 7.25 7.45367 7.25 8.42017V18.4202C7.25 19.6628 8.25736 20.6702 9.5 20.6702H23.5C24.7426 20.6702 25.75 19.6628 25.75 18.4202V8.42017C25.75 7.45367 26.5335 6.67017 27.5 6.67017H29.5C30.4665 6.67017 31.25 7.45367 31.25 8.42017V21.4202C31.25 24.0435 29.1234 26.1702 26.5 26.1702H6.5C3.87665 26.1702 1.75 24.0435 1.75 21.4202V8.42017C1.75 7.45367 2.5335 6.67017 3.5 6.67017Z" fill="#F7FEE7" stroke="#84CC16" stroke-width="0.5"/>
<path d="M12.125 5.54517H20.875C22.1867 5.54517 23.25 6.60849 23.25 7.92017V17.5452C23.25 17.8903 22.9702 18.1702 22.625 18.1702H10.375C10.0298 18.1702 9.75 17.8903 9.75 17.5452V7.92017C9.75 6.60849 10.8133 5.54517 12.125 5.54517Z" fill="#F7FEE7" stroke="#84CC16" stroke-width="0.5"/>
</svg>
